# xmcd
#
# Track frame offsets: 
#        150
#        7830
#        27167
#        47960
#        65380
#        81256
#        97222
#        114274
#        136500
#        150784
#        159416
#        177377
#        191042
#        209428
#        224416
#
# Disc length: 3423 seconds
#
# Revision: 0
# Processed by: cddbd v1.5.2PL0 Copyright (c) Steve Scherf et al.
# Submitted via: ExactAudioCopy v0.99pb3
#
DISCID=c10d5d0f
DTITLE=Choklate - To Whom It May Concern
DYEAR=2009
DGENRE=R&B
TTITLE0=Time Tells Intro
TTITLE1=Suns Out
TTITLE2=Grown Folk
TTITLE3=Serious?
TTITLE4=Call It Good (Sorry)
TTITLE5=Hunney's Runnin
TTITLE6=Completely Interlude
TTITLE7=To Whom It May Concern
TTITLE8=The Tea
TTITLE9=One'A Y'All
TTITLE10=Pretty
TTITLE11=6.8 Billion
TTITLE12=No Answer
TTITLE13=The Blues
TTITLE14=Aint It Funny Interlude
EXTD=
EXTT0=
EXTT1=
EXTT2=
EXTT3=
EXTT4=
EXTT5=
EXTT6=
EXTT7=
EXTT8=
EXTT9=
EXTT10=
EXTT11=
EXTT12=
EXTT13=
EXTT14=
PLAYORDER=
